<svg xmlns="http://www.w3.org/2000/svg" xmlns:xlink="http://www.w3.org/1999/xlink" id="Layer_1" data-name="Layer 1" viewBox="73.42 68 378.58 384"><defs><style>.cls-1,.cls-3,.cls-5,.cls-6,.cls-8,.cls-9{fill:none;}.cls-2{clip-path:url(#clip-path);}.cls-3{stroke:#000;stroke-width:28.2px;}.cls-4{fill:#336791;}.cls-5,.cls-6,.cls-8,.cls-9{stroke:#fff;}.cls-5,.cls-6{stroke-linecap:round;stroke-width:9.4px;}.cls-5{stroke-linejoin:round;}.cls-6{stroke-linejoin:bevel;}.cls-11,.cls-7{fill:#fff;}.cls-8{stroke-width:3.13px;}.cls-9{stroke-width:1.57px;}.cls-10{fill:#3178c6;}.cls-11{fill-rule:evenodd;}</style><clipPath id="clip-path"><rect class="cls-1" x="73" y="68" width="325.79" height="335.83"/></clipPath></defs><rect class="cls-1" width="512" height="512"/><g class="cls-2"><g class="cls-2"><path d="M316.7,312.47c2.14-17.79,1.5-20.4,14.75-17.52l3.37.3c10.19.46,23.52-1.64,31.36-5.28,16.86-7.83,26.86-20.89,10.23-17.46-37.93,7.83-40.53-5-40.53-5,40-59.42,56.78-134.85,42.33-153.31C338.8,63.83,270.58,87.64,269.44,88.26l-.37.07a134.42,134.42,0,0,0-25.3-2.64c-17.16-.28-30.18,4.5-40.06,12,0,0-121.7-50.14-116,63.06,1.2,24.08,34.52,182.21,74.25,134.45C176.44,277.72,190.47,263,190.47,263a36.82,36.82,0,0,0,24.06,6.14l.68-.58a26.41,26.41,0,0,0,.27,6.8c-10.23,11.44-7.23,13.45-27.69,17.66-20.7,4.27-8.54,11.86-.6,13.85,9.63,2.41,31.9,5.82,46.95-15.25l-.6,2.4c4,3.21,3.75,23.09,4.32,37.29s1.52,27.45,4.41,35.27,6.31,27.93,33.2,22.17C298,383.89,315.14,377,316.7,312.47"/><path class="cls-3" d="M316.7,312.47c2.14-17.79,1.5-20.4,14.75-17.52l3.37.3c10.19.46,23.52-1.64,31.36-5.28,16.86-7.83,26.86-20.89,10.23-17.46-37.93,7.83-40.53-5-40.53-5,40-59.42,56.78-134.85,42.33-153.31C338.8,63.83,270.58,87.64,269.44,88.26l-.37.07a134.42,134.42,0,0,0-25.3-2.64c-17.16-.28-30.18,4.5-40.06,12,0,0-121.7-50.14-116,63.06,1.2,24.08,34.52,182.21,74.25,134.45C176.44,277.72,190.47,263,190.47,263a36.82,36.82,0,0,0,24.06,6.14l.68-.58a26.41,26.41,0,0,0,.27,6.8c-10.23,11.44-7.23,13.45-27.69,17.66-20.7,4.27-8.54,11.86-.6,13.85,9.63,2.41,31.9,5.82,46.95-15.25l-.6,2.4c4,3.21,3.75,23.09,4.32,37.29s1.52,27.45,4.41,35.27,6.31,27.93,33.2,22.17C298,383.89,315.14,377,316.7,312.47"/><path class="cls-4" d="M376.41,272.51c-37.93,7.83-40.53-5-40.53-5,40-59.43,56.78-134.86,42.34-153.32C338.81,63.83,270.58,87.64,269.44,88.26l-.36.07a134.62,134.62,0,0,0-25.31-2.64c-17.16-.28-30.18,4.5-40.06,12,0,0-121.71-50.14-116,63.06,1.21,24.08,34.52,182.21,74.25,134.45C176.44,277.72,190.47,263,190.47,263a36.82,36.82,0,0,0,24.06,6.14l.68-.58a26.41,26.41,0,0,0,.27,6.8c-10.24,11.44-7.23,13.45-27.69,17.66-20.71,4.27-8.54,11.86-.6,13.85,9.63,2.41,31.9,5.82,46.95-15.25l-.6,2.4c4,3.21,6.82,20.9,6.35,36.93s-.78,27,2.38,35.63,6.31,27.93,33.2,22.17c22.48-4.82,34.13-17.3,35.75-38.12,1.15-14.8,3.75-12.61,3.91-25.85l2.09-6.26c2.41-20.07.38-26.54,14.23-23.53l3.37.29c10.19.47,23.53-1.63,31.36-5.27,16.86-7.83,26.85-20.89,10.23-17.46Z"/><path class="cls-5" d="M235.77,284c-1.05,37.34.26,74.94,3.91,84.07s11.48,26.91,38.38,21.15c22.48-4.82,30.65-14.14,34.2-34.72,2.62-15.15,7.65-57.2,8.3-65.82"/><path class="cls-5" d="M203.52,96.85S81.73,47.07,87.4,160.27c1.2,24.08,34.51,182.21,74.25,134.45,14.52-17.47,27.65-31.17,27.65-31.17"/><path class="cls-5" d="M269.31,87.76c-4.22,1.32,67.75-26.31,108.64,25.95,14.45,18.46-2.29,93.89-42.34,153.32"/><path class="cls-6" d="M335.61,267s2.61,12.84,40.54,5c16.62-3.43,6.62,9.63-10.24,17.46-13.83,6.42-44.84,8.07-45.35-.81-1.3-22.88,16.32-15.93,15.05-21.66-1.15-5.17-9-10.24-14.24-22.88-4.56-11-62.43-95.65,16.05-83.08,2.87-.59-20.47-74.65-93.92-75.85s-71,90.3-71,90.3"/><path class="cls-5" d="M215.21,274.85C205,286.29,208,288.3,187.52,292.51c-20.7,4.27-8.54,11.86-.6,13.85,9.63,2.41,31.9,5.82,47-15.26,4.58-6.41,0-16.65-6.32-19.26C224.51,270.58,220.44,269,215.21,274.85Z"/><path class="cls-5" d="M214.54,274.65c-1-6.72,2.21-14.72,5.68-24.08,5.22-14,17.26-28.09,7.63-72.64-7.18-33.2-55.34-6.91-55.37-2.41s2.18,22.82-.81,44.15c-3.89,27.83,17.71,51.37,42.59,49"/><path class="cls-7" d="M203.08,174.84c-.22,1.54,2.82,5.64,6.77,6.19s7.32-2.65,7.54-4.19-2.82-3.23-6.77-3.78-7.33.25-7.54,1.78Z"/><path class="cls-8" d="M203.08,174.84c-.22,1.54,2.82,5.64,6.77,6.19s7.32-2.65,7.54-4.19-2.82-3.23-6.77-3.78-7.33.25-7.54,1.78Z"/><path class="cls-7" d="M323.29,171.71c.21,1.54-2.81,5.64-6.77,6.19s-7.33-2.66-7.54-4.19,2.82-3.23,6.77-3.78,7.33.25,7.54,1.78Z"/><path class="cls-9" d="M323.29,171.71c.21,1.54-2.81,5.64-6.77,6.19s-7.33-2.66-7.54-4.19,2.82-3.23,6.77-3.78,7.33.25,7.54,1.78Z"/><path class="cls-5" d="M337.42,161.07c.65,12.06-2.6,20.27-3,33.11-.61,18.66,8.9,40-5.42,61.41"/></g></g><rect class="cls-10" x="297" y="297" width="155" height="155" rx="15.14"/><rect class="cls-10" x="297" y="297" width="155" height="155" rx="15.14"/><path class="cls-11" d="M393,420.24v15.13a32.09,32.09,0,0,0,8.73,2.84,57.55,57.55,0,0,0,10.62,1,49.25,49.25,0,0,0,10.34-1.05,25.3,25.3,0,0,0,8.58-3.42,17.62,17.62,0,0,0,5.85-6.25A22,22,0,0,0,438,411.7a16.86,16.86,0,0,0-3.55-5.51,26.16,26.16,0,0,0-5.56-4.33,60,60,0,0,0-7.31-3.61q-3-1.23-5.35-2.39a27,27,0,0,1-4-2.37,10.26,10.26,0,0,1-2.55-2.55,5.38,5.38,0,0,1-.9-3.05,5.12,5.12,0,0,1,.8-2.81,7,7,0,0,1,2.27-2.16,12.13,12.13,0,0,1,3.6-1.39,20.93,20.93,0,0,1,4.73-.5,29.9,29.9,0,0,1,4,.29,30.86,30.86,0,0,1,4.23.87,28.76,28.76,0,0,1,4.14,1.49,23,23,0,0,1,3.72,2.08V371.62a36.73,36.73,0,0,0-7.55-2,60.94,60.94,0,0,0-9.39-.64,43.78,43.78,0,0,0-10.22,1.16,25.85,25.85,0,0,0-8.49,3.62,18,18,0,0,0-5.8,6.26,18.4,18.4,0,0,0-2.13,9.11,17.62,17.62,0,0,0,3.91,11.54q3.9,4.77,11.85,8.08,3.12,1.27,5.82,2.51a32.63,32.63,0,0,1,4.66,2.55,12.41,12.41,0,0,1,3.1,2.89,5.91,5.91,0,0,1,1.13,3.55,5.33,5.33,0,0,1-.71,2.71,6.21,6.21,0,0,1-2.15,2.18,11.47,11.47,0,0,1-3.6,1.44,21.37,21.37,0,0,1-5,.52,29,29,0,0,1-18.69-6.9ZM367.54,383h19.37V370.56H332.72V383H352.1v55.4h15.44Z"/></svg>